<svg width="24" height="23" viewBox="0 0 24 23" fill="none" xmlns="http://www.w3.org/2000/svg">
<rect width="24" height="23" fill="#E5E5E5"/>
<g clip-path="url(#clip0)">
<rect width="1440" height="1961" transform="translate(-155 -614)" fill="white"/>
<g filter="url(#filter0_d)">
<rect x="-20" y="-437" width="561" height="640" rx="5" fill="white"/>
<rect x="-19.5" y="-436.5" width="560" height="639" rx="4.5" stroke="#C4C4C4"/>
</g>
<rect x="-1.5" y="4.5" width="23" height="23" rx="2.5" stroke="#7A7676"/>
<path fill-rule="evenodd" clip-rule="evenodd" d="M23.1328 0.454616C22.1348 -0.316608 20.7387 -0.0806364 20.0119 0.978356L9.63378 16.1266L3.91689 9.95102C3.07465 8.99562 1.66129 8.94958 0.761356 9.84742C-0.138578 10.7395 -0.184728 12.2417 0.663286 13.1913C0.663286 13.1913 7.60893 20.8805 8.60693 21.6517C9.60493 22.423 11.001 22.187 11.7279 21.128L23.6289 3.76397C24.3558 2.69922 24.1308 1.22008 23.1328 0.454616Z" fill="#001B36"/>
<mask id="mask0" mask-type="alpha" maskUnits="userSpaceOnUse" x="0" y="0" width="25" height="23">
<path fill-rule="evenodd" clip-rule="evenodd" d="M23.1328 0.454616C22.1348 -0.316608 20.7387 -0.0806364 20.0119 0.978356L9.63378 16.1266L3.91689 9.95102C3.07465 8.99562 1.66129 8.94958 0.761356 9.84742C-0.138578 10.7395 -0.184728 12.2417 0.663286 13.1913C0.663286 13.1913 7.60893 20.8805 8.60693 21.6517C9.60493 22.423 11.001 22.187 11.7279 21.128L23.6289 3.76397C24.3558 2.69922 24.1308 1.22008 23.1328 0.454616Z" fill="white"/>
</mask>
<g mask="url(#mask0)">
<rect y="-1" width="24" height="24" fill="#001B36"/>
</g>
</g>
<defs>
<filter id="filter0_d" x="-22" y="-439" width="569" height="648" filterUnits="userSpaceOnUse" color-interpolation-filters="sRGB">
<feFlood flood-opacity="0" result="BackgroundImageFix"/>
<feColorMatrix in="SourceAlpha" type="matrix" values="0 0 0 0 0 0 0 0 0 0 0 0 0 0 0 0 0 0 127 0"/>
<feOffset dx="2" dy="2"/>
<feGaussianBlur stdDeviation="2"/>
<feColorMatrix type="matrix" values="0 0 0 0 0 0 0 0 0 0 0 0 0 0 0 0 0 0 0.25 0"/>
<feBlend mode="normal" in2="BackgroundImageFix" result="effect1_dropShadow"/>
<feBlend mode="normal" in="SourceGraphic" in2="effect1_dropShadow" result="shape"/>
</filter>
<clipPath id="clip0">
<rect width="1440" height="1961" fill="white" transform="translate(-155 -614)"/>
</clipPath>
</defs>
</svg>
